PathFileType	4	(X/Y/Z)	C:/Users/opensim2020/Desktop/walking_exp_matlab/subject03_walking07_straight_03.trc	
DataRate	CameraRate	NumFrames	NumMarkers	Units	OrigDataRate	OrigDataStartFrame	OrigNumFrames	
100.00	100.00	4	46	mm	100.00	2203	306	
Frame#	Time	LFHD			RFHD			LBHD			RBHD			C7			T10			CLAV			STRN			RBAK			LSHO			LUPA			LELB			LFRM			LWRA			LWRB			LFIN			RSHO			RUPA			RELB			RFRM			RWRA			RWRB			RFIN			LASI			RASI			LPSI			RPSI			LTHI			LKNE			LTIB			LANK			LHEE			LTOE			RTHI			RKNE			RTIB			RANK			RHEE			RTOE			*39			*40			*41			*42			*43			*44			*45			
		X1	Y1	Z1	X2	Y2	Z2	X3	Y3	Z3	X4	Y4	Z4	X5	Y5	Z5	X6	Y6	Z6	X7	Y7	Z7	X8	Y8	Z8	X9	Y9	Z9	X10	Y10	Z10	X11	Y11	Z11	X12	Y12	Z12	X13	Y13	Z13	X14	Y14	Z14	X15	Y15	Z15	X16	Y16	Z16	X17	Y17	Z17	X18	Y18	Z18	X19	Y19	Z19	X20	Y20	Z20	X21	Y21	Z21	X22	Y22	Z22	X23	Y23	Z23	X24	Y24	Z24	X25	Y25	Z25	X26	Y26	Z26	X27	Y27	Z27	X28	Y28	Z28	X29	Y29	Z29	X30	Y30	Z30	X31	Y31	Z31	X32	Y32	Z32	X33	Y33	Z33	X34	Y34	Z34	X35	Y35	Z35	X36	Y36	Z36	X37	Y37	Z37	X38	Y38	Z38	X39	Y39	Z39	X40	Y40	Z40	X41	Y41	Z41	X42	Y42	Z42	X43	Y43	Z43	X44	Y44	Z44	X45	Y45	Z45	X46	Y46	Z46	

39	0.380	1348.48071	-945.97638	1628.21277	1481.24426	-947.90155	1629.32568	1350.27991	-1064.88892	1563.55017	1481.27124	-1063.00647	1565.38831	1399.75195	-1077.90576	1419.45361	1406.87830	-1132.69446	1112.22278	1406.50610	-956.67523	1340.28845	1405.90479	-922.40546	1172.37415	1500.53101	-1139.37927	1252.85986	1249.51489	-990.00610	1376.77930	1179.61182	-1004.52496	1178.71313	1171.34839	-1007.47357	1055.43201	1173.08691	-994.33380	925.32172	1203.54236	-994.61298	804.61798	1149.14795	-1007.40021	813.73431	1160.96704	-1012.47595	727.41742	1563.39246	-1005.05566	1369.88806	1644.33862	-1010.06494	1151.73608	1661.45093	-996.27075	1040.18298	1668.35754	-976.35889	904.93622	1635.70813	-941.73846	810.78107	1678.66174	-974.36346	804.59821	1669.65210	-948.67609	733.93781	1299.09998	-970.06329	945.13684	1533.11316	-982.62555	933.21375	1339.65527	-1133.45361	972.37592	1489.18408	-1138.76917	972.27228	1248.11975	-1005.79688	647.92279	1288.19141	-974.23083	473.30408	1282.53308	-993.22595	279.32925	1318.64795	-969.20728	69.03549	1356.55127	-1005.88922	34.96080	1342.79443	-814.98315	36.23008	1583.46277	-1056.43542	635.97571	1566.56982	-1047.54199	455.08493	1573.41040	-1196.01062	332.99652	1533.15649	-1361.19104	194.85989	1477.97607	-1408.34595	209.62201	1517.70276	-1319.59387	56.29635	1400.76294	-1038.40466	1674.12610																		 
40	0.390	1347.13086	-937.69464	1628.87146	1479.91211	-939.69812	1630.11108	1348.91162	-1056.72778	1564.17517	1479.96436	-1054.82019	1566.17688	1398.26819	-1069.65625	1420.15356	1405.48560	-1124.46533	1112.77991	1405.61108	-948.70685	1340.95313	1405.10229	-914.40521	1172.97595	1498.77234	-1131.52734	1253.27319	1248.48657	-981.31775	1377.03979	1179.15540	-993.25909	1178.96863	1168.94043	-994.64197	1055.95313	1170.65503	-979.02124	925.91644	1200.73645	-977.10181	805.24286	1146.46240	-990.19629	814.32861	1157.85376	-994.18488	727.95740	1562.31604	-997.55109	1370.50708	1643.36401	-1002.89722	1152.46985	1660.56702	-989.15503	1040.89197	1667.83740	-969.29291	905.70062	1635.56494	-934.56360	811.35138	1678.37354	-967.49176	805.33319	1669.47424	-941.97083	734.67596	1297.80347	-961.75562	945.51312	1532.19421	-974.18304	933.66809	1338.26318	-1125.51196	972.82404	1487.70789	-1130.79529	971.95459	1246.32617	-999.93335	648.34387	1287.12891	-970.18939	473.48059	1281.94507	-990.88702	279.59082	1318.63171	-969.18414	69.08666	1356.54468	-1005.91998	34.89941	1342.83069	-814.95789	36.13105	1581.53369	-1043.24976	635.89404	1565.05603	-1029.37939	455.33313	1570.97363	-1178.52905	335.16684	1530.79272	-1345.24512	199.17058	1475.35986	-1392.54700	213.21301	1517.47290	-1302.67700	60.97255	1399.32080	-1030.23779	1674.82739																		 
41	0.400	1345.85193	-929.50330	1629.45935	1478.62634	-931.48944	1630.90466	1347.68616	-1048.39111	1564.82568	1478.69360	-1046.62280	1566.94226	1396.93347	-1061.55615	1420.94641	1404.13672	-1116.30664	1113.35437	1404.75415	-940.87103	1341.59900	1404.29016	-906.56683	1173.52734	1497.06653	-1123.84253	1253.73096	1247.55603	-972.82922	1377.20435	1177.71826	-981.93817	1179.35767	1167.62805	-980.30603	1056.33911	1168.41113	-963.44647	926.66809	1198.42285	-958.76569	806.37604	1143.83923	-972.79553	814.95618	1155.01392	-975.19440	728.50995	1561.39966	-990.17987	1371.10400	1642.38086	-995.65106	1153.00134	1660.30530	-982.63910	1041.50659	1667.21729	-962.28412	906.26666	1635.39819	-927.38812	811.85449	1678.11133	-960.61255	805.92883	1669.28284	-935.05573	735.16986	1296.35840	-953.77820	945.92487	1531.02893	-966.42914	934.09546	1336.94238	-1117.63770	973.20404	1486.32007	-1122.88037	971.74011	1245.09424	-994.18512	648.79565	1286.23853	-966.21759	473.75616	1281.47571	-988.74878	279.88831	1318.63623	-969.18573	69.17368	1356.54980	-1005.95630	34.88013	1342.79346	-814.91327	36.02077	1579.65930	-1030.17310	636.36694	1563.56873	-1011.45123	456.23038	1568.46509	-1160.81177	337.33591	1528.44580	-1328.35315	202.43004	1472.71313	-1375.96765	215.80438	1516.53064	-1284.20593	64.61343	1397.94702	-1021.99731	1675.53442																		 
42	0.410	1344.69299	-921.28857	1630.09302	1477.51282	-923.38763	1631.67822	1346.54089	-1040.18262	1565.46143	1477.54590	-1038.52344	1567.73584	1395.77112	-1053.45703	1421.71777	1402.79980	-1108.31384	1113.95288	1403.88379	-933.15131	1342.18262	1403.49939	-898.75500	1174.02466	1495.50659	-1116.29321	1254.19385	1246.65735	-964.56946	1377.28003	1176.37842	-970.95142	1179.60962	1165.55115	-967.29663	1056.68140	1166.21423	-947.83051	927.35724	1195.51746	-941.53503	806.82288	1141.42615	-955.12378	815.56335	1152.17468	-955.62372	729.19330	1560.52551	-982.99365	1371.48962	1641.63574	-988.71594	1153.36279	1659.90002	-975.82446	1041.92737	1666.71838	-955.41229	906.66351	1635.11572	-920.35663	812.26678	1677.64587	-953.79443	806.34222	1668.90576	-928.12653	735.46521	1294.52942	-945.78900	946.39099	1530.09839	-957.91571	934.37939	1335.77856	-1110.00854	973.73279	1485.05859	-1115.00928	971.72961	1244.31982	-988.27026	649.25323	1285.54285	-962.05750	474.18036	1281.09521	-986.89276	280.10721	1318.65833	-969.18988	69.16610	1356.56848	-1006.07440	34.95475	1342.73779	-814.94788	35.97686	1577.75415	-1016.99438	637.07300	1561.98096	-993.70453	457.52695	1566.14319	-1142.83704	339.15555	1526.01599	-1310.68591	204.71989	1469.80103	-1358.28955	216.92911	1515.50867	-1264.85413	67.61880	1396.67578	-1013.83063	1676.26917																		 
